<svg width="583" height="185" viewBox="0 0 583 185" fill="none" xmlns="http://www.w3.org/2000/svg">
<path d="M78.85 80.69V147H65.55V103.87L47.785 147H37.715L19.855 103.87V147H6.555V80.69H21.66L42.75 129.995L63.84 80.69H78.85ZM88.5793 120.495C88.5793 115.175 89.6243 110.457 91.7143 106.34C93.8677 102.223 96.7493 99.0567 100.359 96.84C104.033 94.6233 108.118 93.515 112.614 93.515C116.541 93.515 119.961 94.3067 122.874 95.89C125.851 97.4733 128.226 99.4683 129.999 101.875V94.37H143.394V147H129.999V139.305C128.289 141.775 125.914 143.833 122.874 145.48C119.898 147.063 116.446 147.855 112.519 147.855C108.086 147.855 104.033 146.715 100.359 144.435C96.7493 142.155 93.8677 138.957 91.7143 134.84C89.6243 130.66 88.5793 125.878 88.5793 120.495ZM129.999 120.685C129.999 117.455 129.366 114.7 128.099 112.42C126.833 110.077 125.123 108.303 122.969 107.1C120.816 105.833 118.504 105.2 116.034 105.2C113.564 105.2 111.284 105.802 109.194 107.005C107.104 108.208 105.394 109.982 104.064 112.325C102.798 114.605 102.164 117.328 102.164 120.495C102.164 123.662 102.798 126.448 104.064 128.855C105.394 131.198 107.104 133.003 109.194 134.27C111.348 135.537 113.628 136.17 116.034 136.17C118.504 136.17 120.816 135.568 122.969 134.365C125.123 133.098 126.833 131.325 128.099 129.045C129.366 126.702 129.999 123.915 129.999 120.685ZM176.524 147.855C172.217 147.855 168.354 147.095 164.934 145.575C161.514 143.992 158.791 141.87 156.764 139.21C154.801 136.55 153.724 133.605 153.534 130.375H166.929C167.182 132.402 168.164 134.08 169.874 135.41C171.647 136.74 173.832 137.405 176.429 137.405C178.962 137.405 180.926 136.898 182.319 135.885C183.776 134.872 184.504 133.573 184.504 131.99C184.504 130.28 183.617 129.013 181.844 128.19C180.134 127.303 177.379 126.353 173.579 125.34C169.652 124.39 166.422 123.408 163.889 122.395C161.419 121.382 159.266 119.83 157.429 117.74C155.656 115.65 154.769 112.832 154.769 109.285C154.769 106.372 155.592 103.712 157.239 101.305C158.949 98.8983 161.356 96.9983 164.459 95.605C167.626 94.2117 171.331 93.515 175.574 93.515C181.844 93.515 186.847 95.0983 190.584 98.265C194.321 101.368 196.379 105.58 196.759 110.9H184.029C183.839 108.81 182.952 107.163 181.369 105.96C179.849 104.693 177.791 104.06 175.194 104.06C172.787 104.06 170.919 104.503 169.589 105.39C168.322 106.277 167.689 107.512 167.689 109.095C167.689 110.868 168.576 112.23 170.349 113.18C172.122 114.067 174.877 114.985 178.614 115.935C182.414 116.885 185.549 117.867 188.019 118.88C190.489 119.893 192.611 121.477 194.384 123.63C196.221 125.72 197.171 128.507 197.234 131.99C197.234 135.03 196.379 137.753 194.669 140.16C193.022 142.567 190.616 144.467 187.449 145.86C184.346 147.19 180.704 147.855 176.524 147.855ZM258.502 94.37L225.917 171.89H211.762L223.162 145.67L202.072 94.37H216.987L230.572 131.135L244.347 94.37H258.502ZM262.251 120.495C262.251 115.175 263.296 110.457 265.386 106.34C267.54 102.223 270.421 99.0567 274.031 96.84C277.705 94.6233 281.79 93.515 286.286 93.515C290.213 93.515 293.633 94.3067 296.546 95.89C299.523 97.4733 301.898 99.4683 303.671 101.875V94.37H317.066V147H303.671V139.305C301.961 141.775 299.586 143.833 296.546 145.48C293.57 147.063 290.118 147.855 286.191 147.855C281.758 147.855 277.705 146.715 274.031 144.435C270.421 142.155 267.54 138.957 265.386 134.84C263.296 130.66 262.251 125.878 262.251 120.495ZM303.671 120.685C303.671 117.455 303.038 114.7 301.771 112.42C300.505 110.077 298.795 108.303 296.641 107.1C294.488 105.833 292.176 105.2 289.706 105.2C287.236 105.2 284.956 105.802 282.866 107.005C280.776 108.208 279.066 109.982 277.736 112.325C276.47 114.605 275.836 117.328 275.836 120.495C275.836 123.662 276.47 126.448 277.736 128.855C279.066 131.198 280.776 133.003 282.866 134.27C285.02 135.537 287.3 136.17 289.706 136.17C292.176 136.17 294.488 135.568 296.641 134.365C298.795 133.098 300.505 131.325 301.771 129.045C303.038 126.702 303.671 123.915 303.671 120.685ZM343.356 102.54C345.066 99.7533 347.283 97.5683 350.006 95.985C352.793 94.4017 355.959 93.61 359.506 93.61V107.575H355.991C351.811 107.575 348.644 108.557 346.491 110.52C344.401 112.483 343.356 115.903 343.356 120.78V147H330.056V94.37H343.356V102.54ZM365.044 120.495C365.044 115.175 366.089 110.457 368.179 106.34C370.333 102.223 373.214 99.0567 376.824 96.84C380.498 94.6233 384.583 93.515 389.079 93.515C393.006 93.515 396.426 94.3067 399.339 95.89C402.316 97.4733 404.691 99.4683 406.464 101.875V94.37H419.859V147H406.464V139.305C404.754 141.775 402.379 143.833 399.339 145.48C396.363 147.063 392.911 147.855 388.984 147.855C384.551 147.855 380.498 146.715 376.824 144.435C373.214 142.155 370.333 138.957 368.179 134.84C366.089 130.66 365.044 125.878 365.044 120.495ZM406.464 120.685C406.464 117.455 405.831 114.7 404.564 112.42C403.298 110.077 401.588 108.303 399.434 107.1C397.281 105.833 394.969 105.2 392.499 105.2C390.029 105.2 387.749 105.802 385.659 107.005C383.569 108.208 381.859 109.982 380.529 112.325C379.263 114.605 378.629 117.328 378.629 120.495C378.629 123.662 379.263 126.448 380.529 128.855C381.859 131.198 383.569 133.003 385.659 134.27C387.813 135.537 390.093 136.17 392.499 136.17C394.969 136.17 397.281 135.568 399.434 134.365C401.588 133.098 403.298 131.325 404.564 129.045C405.831 126.702 406.464 123.915 406.464 120.685ZM464.009 147L446.149 124.58V147H432.849V76.7H446.149V116.695L463.819 94.37H481.109L457.929 120.78L481.299 147H464.009ZM484.907 120.495C484.907 115.175 485.952 110.457 488.042 106.34C490.196 102.223 493.077 99.0567 496.687 96.84C500.361 94.6233 504.446 93.515 508.942 93.515C512.869 93.515 516.289 94.3067 519.202 95.89C522.179 97.4733 524.554 99.4683 526.327 101.875V94.37H539.722V147H526.327V139.305C524.617 141.775 522.242 143.833 519.202 145.48C516.226 147.063 512.774 147.855 508.847 147.855C504.414 147.855 500.361 146.715 496.687 144.435C493.077 142.155 490.196 138.957 488.042 134.84C485.952 130.66 484.907 125.878 484.907 120.495ZM526.327 120.685C526.327 117.455 525.694 114.7 524.427 112.42C523.161 110.077 521.451 108.303 519.297 107.1C517.144 105.833 514.832 105.2 512.362 105.2C509.892 105.2 507.612 105.802 505.522 107.005C503.432 108.208 501.722 109.982 500.392 112.325C499.126 114.605 498.492 117.328 498.492 120.495C498.492 123.662 499.126 126.448 500.392 128.855C501.722 131.198 503.432 133.003 505.522 134.27C507.676 135.537 509.956 136.17 512.362 136.17C514.832 136.17 517.144 135.568 519.297 134.365C521.451 133.098 523.161 131.325 524.427 129.045C525.694 126.702 526.327 123.915 526.327 120.685ZM568.197 105.295V130.755C568.197 132.528 568.609 133.827 569.432 134.65C570.319 135.41 571.776 135.79 573.802 135.79H579.977V147H571.617C560.407 147 554.802 141.553 554.802 130.66V105.295H548.532V94.37H554.802V81.355H568.197V94.37H579.977V105.295H568.197Z" fill="#4771C4"/>
<path d="M33.855 34.16C33.855 36.1033 33.3967 37.9367 32.48 39.66C31.5633 41.3833 30.0967 42.795 28.08 43.895C26.0633 44.9583 23.4783 45.49 20.325 45.49H13.395V61H7.125V22.775H20.325C23.2583 22.775 25.7333 23.2883 27.75 24.315C29.8033 25.305 31.325 26.6617 32.315 28.385C33.3417 30.1083 33.855 32.0333 33.855 34.16ZM20.325 40.375C22.7083 40.375 24.4867 39.8433 25.66 38.78C26.8333 37.68 27.42 36.14 27.42 34.16C27.42 29.98 25.055 27.89 20.325 27.89H13.395V40.375H20.325ZM67.61 45.105C67.61 46.2417 67.5366 47.2683 67.39 48.185H44.235C44.4183 50.605 45.3166 52.5483 46.93 54.015C48.5433 55.4817 50.5233 56.215 52.87 56.215C56.2433 56.215 58.6266 54.8033 60.02 51.98H66.785C65.8683 54.7667 64.2 57.0583 61.78 58.855C59.3966 60.615 56.4266 61.495 52.87 61.495C49.9733 61.495 47.37 60.8533 45.06 59.57C42.7866 58.25 40.99 56.4167 39.67 54.07C38.3866 51.6867 37.745 48.9367 37.745 45.82C37.745 42.7033 38.3683 39.9717 39.615 37.625C40.8983 35.2417 42.6766 33.4083 44.95 32.125C47.26 30.8417 49.9 30.2 52.87 30.2C55.73 30.2 58.2783 30.8233 60.515 32.07C62.7516 33.3167 64.4933 35.0767 65.74 37.35C66.9866 39.5867 67.61 42.1717 67.61 45.105ZM61.065 43.125C61.0283 40.815 60.2033 38.9633 58.59 37.57C56.9766 36.1767 54.9783 35.48 52.595 35.48C50.4316 35.48 48.58 36.1767 47.04 37.57C45.5 38.9267 44.5833 40.7783 44.29 43.125H61.065ZM89.0703 30.2C91.4536 30.2 93.5803 30.695 95.4503 31.685C97.3569 32.675 98.8419 34.1417 99.9053 36.085C100.969 38.0283 101.5 40.375 101.5 43.125V61H95.2853V44.06C95.2853 41.3467 94.6069 39.275 93.2503 37.845C91.8936 36.3783 90.0419 35.645 87.6953 35.645C85.3486 35.645 83.4786 36.3783 82.0853 37.845C80.7286 39.275 80.0503 41.3467 80.0503 44.06V61H73.7803V30.695H80.0503V34.16C81.0769 32.9133 82.3786 31.9417 83.9553 31.245C85.5686 30.5483 87.2736 30.2 89.0703 30.2ZM121.708 30.2C124.055 30.2 126.126 30.6767 127.923 31.63C129.756 32.5467 131.186 33.7017 132.213 35.095V30.695H138.538V61.495C138.538 64.2817 137.951 66.7567 136.778 68.92C135.605 71.12 133.9 72.8433 131.663 74.09C129.463 75.3367 126.823 75.96 123.743 75.96C119.636 75.96 116.226 74.9883 113.513 73.045C110.8 71.1383 109.26 68.535 108.893 65.235H115.108C115.585 66.8117 116.593 68.0767 118.133 69.03C119.71 70.02 121.58 70.515 123.743 70.515C126.273 70.515 128.308 69.745 129.848 68.205C131.425 66.665 132.213 64.4283 132.213 61.495V56.435C131.15 57.865 129.701 59.075 127.868 60.065C126.071 61.0183 124.018 61.495 121.708 61.495C119.068 61.495 116.648 60.835 114.448 59.515C112.285 58.1583 110.561 56.2883 109.278 53.905C108.031 51.485 107.408 48.7533 107.408 45.71C107.408 42.6667 108.031 39.9717 109.278 37.625C110.561 35.2783 112.285 33.4633 114.448 32.18C116.648 30.86 119.068 30.2 121.708 30.2ZM132.213 45.82C132.213 43.73 131.773 41.915 130.893 40.375C130.05 38.835 128.931 37.6617 127.538 36.855C126.145 36.0483 124.641 35.645 123.028 35.645C121.415 35.645 119.911 36.0483 118.518 36.855C117.125 37.625 115.988 38.78 115.108 40.32C114.265 41.8233 113.843 43.62 113.843 45.71C113.843 47.8 114.265 49.6333 115.108 51.21C115.988 52.7867 117.125 53.9967 118.518 54.84C119.948 55.6467 121.451 56.05 123.028 56.05C124.641 56.05 126.145 55.6467 127.538 54.84C128.931 54.0333 130.05 52.86 130.893 51.32C131.773 49.7433 132.213 47.91 132.213 45.82ZM144.683 45.71C144.683 42.6667 145.307 39.9717 146.553 37.625C147.837 35.2783 149.56 33.4633 151.723 32.18C153.923 30.86 156.343 30.2 158.983 30.2C161.367 30.2 163.438 30.6767 165.198 31.63C166.995 32.5467 168.425 33.7017 169.488 35.095V30.695H175.813V61H169.488V56.49C168.425 57.92 166.977 59.1117 165.143 60.065C163.31 61.0183 161.22 61.495 158.873 61.495C156.27 61.495 153.887 60.835 151.723 59.515C149.56 58.1583 147.837 56.2883 146.553 53.905C145.307 51.485 144.683 48.7533 144.683 45.71ZM169.488 45.82C169.488 43.73 169.048 41.915 168.168 40.375C167.325 38.835 166.207 37.6617 164.813 36.855C163.42 36.0483 161.917 35.645 160.303 35.645C158.69 35.645 157.187 36.0483 155.793 36.855C154.4 37.625 153.263 38.78 152.383 40.32C151.54 41.8233 151.118 43.62 151.118 45.71C151.118 47.8 151.54 49.6333 152.383 51.21C153.263 52.7867 154.4 53.9967 155.793 54.84C157.223 55.6467 158.727 56.05 160.303 56.05C161.917 56.05 163.42 55.6467 164.813 54.84C166.207 54.0333 167.325 52.86 168.168 51.32C169.048 49.7433 169.488 47.91 169.488 45.82ZM181.959 45.71C181.959 42.6667 182.582 39.9717 183.829 37.625C185.112 35.2783 186.835 33.4633 188.999 32.18C191.199 30.86 193.637 30.2 196.314 30.2C198.294 30.2 200.237 30.64 202.144 31.52C204.087 32.3633 205.627 33.5 206.764 34.93V20.3H213.089V61H206.764V56.435C205.737 57.9017 204.307 59.1117 202.474 60.065C200.677 61.0183 198.605 61.495 196.259 61.495C193.619 61.495 191.199 60.835 188.999 59.515C186.835 58.1583 185.112 56.2883 183.829 53.905C182.582 51.485 181.959 48.7533 181.959 45.71ZM206.764 45.82C206.764 43.73 206.324 41.915 205.444 40.375C204.6 38.835 203.482 37.6617 202.089 36.855C200.695 36.0483 199.192 35.645 197.579 35.645C195.965 35.645 194.462 36.0483 193.069 36.855C191.675 37.625 190.539 38.78 189.659 40.32C188.815 41.8233 188.394 43.62 188.394 45.71C188.394 47.8 188.815 49.6333 189.659 51.21C190.539 52.7867 191.675 53.9967 193.069 54.84C194.499 55.6467 196.002 56.05 197.579 56.05C199.192 56.05 200.695 55.6467 202.089 54.84C203.482 54.0333 204.6 52.86 205.444 51.32C206.324 49.7433 206.764 47.91 206.764 45.82ZM248.769 30.695V61H242.499V57.425C241.509 58.6717 240.208 59.6617 238.594 60.395C237.018 61.0917 235.331 61.44 233.534 61.44C231.151 61.44 229.006 60.945 227.099 59.955C225.229 58.965 223.744 57.4983 222.644 55.555C221.581 53.6117 221.049 51.265 221.049 48.515V30.695H227.264V47.58C227.264 50.2933 227.943 52.3833 229.299 53.85C230.656 55.28 232.508 55.995 234.854 55.995C237.201 55.995 239.053 55.28 240.409 53.85C241.803 52.3833 242.499 50.2933 242.499 47.58V30.695H248.769ZM254.952 45.71C254.952 42.6667 255.575 39.9717 256.822 37.625C258.105 35.2783 259.829 33.4633 261.992 32.18C264.192 30.86 266.612 30.2 269.252 30.2C271.635 30.2 273.707 30.6767 275.467 31.63C277.264 32.5467 278.694 33.7017 279.757 35.095V30.695H286.082V61H279.757V56.49C278.694 57.92 277.245 59.1117 275.412 60.065C273.579 61.0183 271.489 61.495 269.142 61.495C266.539 61.495 264.155 60.835 261.992 59.515C259.829 58.1583 258.105 56.2883 256.822 53.905C255.575 51.485 254.952 48.7533 254.952 45.71ZM279.757 45.82C279.757 43.73 279.317 41.915 278.437 40.375C277.594 38.835 276.475 37.6617 275.082 36.855C273.689 36.0483 272.185 35.645 270.572 35.645C268.959 35.645 267.455 36.0483 266.062 36.855C264.669 37.625 263.532 38.78 262.652 40.32C261.809 41.8233 261.387 43.62 261.387 45.71C261.387 47.8 261.809 49.6333 262.652 51.21C263.532 52.7867 264.669 53.9967 266.062 54.84C267.492 55.6467 268.995 56.05 270.572 56.05C272.185 56.05 273.689 55.6467 275.082 54.84C276.475 54.0333 277.594 52.86 278.437 51.32C279.317 49.7433 279.757 47.91 279.757 45.82ZM309.607 30.2C311.991 30.2 314.117 30.695 315.987 31.685C317.894 32.675 319.379 34.1417 320.442 36.085C321.506 38.0283 322.037 40.375 322.037 43.125V61H315.822V44.06C315.822 41.3467 315.144 39.275 313.787 37.845C312.431 36.3783 310.579 35.645 308.232 35.645C305.886 35.645 304.016 36.3783 302.622 37.845C301.266 39.275 300.587 41.3467 300.587 44.06V61H294.317V30.695H300.587V34.16C301.614 32.9133 302.916 31.9417 304.492 31.245C306.106 30.5483 307.811 30.2 309.607 30.2Z" fill="#DF6114"/>
</svg>
